<mxfile host="app.diagrams.net" modified="2023-02-22T08:01:28.103Z" agent="5.0 (Windows NT 10.0; Win64; x64) AppleWebKit/537.36 (KHTML, like Gecko) Chrome/93.0.4577.63 Safari/537.36 Edg/93.0.961.47" etag="dknbyaL6G1uQX-V5NYHi" version="20.8.22" type="github">
  <diagram name="Page-1" id="bd83a815-5ea8-2e97-e5ec-87c9f400f2fa">
    <mxGraphModel dx="1050" dy="580" grid="1" gridSize="10" guides="1" tooltips="1" connect="1" arrows="1" fold="1" page="1" pageScale="1.5" pageWidth="1169" pageHeight="826" background="none" math="0" shadow="0">
      <root>
        <mxCell id="0" style=";html=1;" />
        <mxCell id="1" style=";html=1;" parent="0" />
        <mxCell id="ouyrmpoxjVuPYAmFfbhM-14" value="" style="shape=table;startSize=0;container=1;collapsible=0;childLayout=tableLayout;fontSize=16;rounded=1;" vertex="1" parent="1">
          <mxGeometry x="260" y="140" width="780" height="334" as="geometry" />
        </mxCell>
        <mxCell id="ouyrmpoxjVuPYAmFfbhM-15" value="" style="shape=tableRow;horizontal=0;startSize=0;swimlaneHead=0;swimlaneBody=0;strokeColor=inherit;top=0;left=0;bottom=0;right=0;collapsible=0;dropTarget=0;fillColor=none;points=[[0,0.5],[1,0.5]];portConstraint=eastwest;fontSize=16;rounded=1;" vertex="1" parent="ouyrmpoxjVuPYAmFfbhM-14">
          <mxGeometry width="780" height="67" as="geometry" />
        </mxCell>
        <mxCell id="ouyrmpoxjVuPYAmFfbhM-16" value="图元绘制" style="shape=partialRectangle;html=1;whiteSpace=wrap;connectable=0;strokeColor=inherit;overflow=hidden;fillColor=none;top=0;left=0;bottom=0;right=0;pointerEvents=1;fontSize=16;rounded=1;" vertex="1" parent="ouyrmpoxjVuPYAmFfbhM-15">
          <mxGeometry width="195" height="67" as="geometry">
            <mxRectangle width="195" height="67" as="alternateBounds" />
          </mxGeometry>
        </mxCell>
        <mxCell id="ouyrmpoxjVuPYAmFfbhM-27" value="点、直线、圆、圆弧、矩形、贝塞尔曲线、B样条曲线" style="shape=partialRectangle;html=1;whiteSpace=wrap;connectable=0;strokeColor=inherit;overflow=hidden;fillColor=none;top=0;left=0;bottom=0;right=0;pointerEvents=1;fontSize=16;rounded=1;" vertex="1" parent="ouyrmpoxjVuPYAmFfbhM-15">
          <mxGeometry x="195" width="195" height="67" as="geometry">
            <mxRectangle width="195" height="67" as="alternateBounds" />
          </mxGeometry>
        </mxCell>
        <mxCell id="ouyrmpoxjVuPYAmFfbhM-17" value="" style="shape=partialRectangle;html=1;whiteSpace=wrap;connectable=0;strokeColor=inherit;overflow=hidden;fillColor=none;top=0;left=0;bottom=0;right=0;pointerEvents=1;fontSize=16;rounded=1;" vertex="1" parent="ouyrmpoxjVuPYAmFfbhM-15">
          <mxGeometry x="390" width="195" height="67" as="geometry">
            <mxRectangle width="195" height="67" as="alternateBounds" />
          </mxGeometry>
        </mxCell>
        <mxCell id="ouyrmpoxjVuPYAmFfbhM-18" value="" style="shape=partialRectangle;html=1;whiteSpace=wrap;connectable=0;strokeColor=inherit;overflow=hidden;fillColor=none;top=0;left=0;bottom=0;right=0;pointerEvents=1;fontSize=16;rounded=1;" vertex="1" parent="ouyrmpoxjVuPYAmFfbhM-15">
          <mxGeometry x="585" width="195" height="67" as="geometry">
            <mxRectangle width="195" height="67" as="alternateBounds" />
          </mxGeometry>
        </mxCell>
        <mxCell id="ouyrmpoxjVuPYAmFfbhM-19" value="" style="shape=tableRow;horizontal=0;startSize=0;swimlaneHead=0;swimlaneBody=0;strokeColor=inherit;top=0;left=0;bottom=0;right=0;collapsible=0;dropTarget=0;fillColor=none;points=[[0,0.5],[1,0.5]];portConstraint=eastwest;fontSize=16;rounded=1;" vertex="1" parent="ouyrmpoxjVuPYAmFfbhM-14">
          <mxGeometry y="67" width="780" height="66" as="geometry" />
        </mxCell>
        <mxCell id="ouyrmpoxjVuPYAmFfbhM-20" value="图元编辑" style="shape=partialRectangle;html=1;whiteSpace=wrap;connectable=0;strokeColor=inherit;overflow=hidden;fillColor=none;top=0;left=0;bottom=0;right=0;pointerEvents=1;fontSize=16;rounded=1;" vertex="1" parent="ouyrmpoxjVuPYAmFfbhM-19">
          <mxGeometry width="195" height="66" as="geometry">
            <mxRectangle width="195" height="66" as="alternateBounds" />
          </mxGeometry>
        </mxCell>
        <mxCell id="ouyrmpoxjVuPYAmFfbhM-28" value="图元移动、删除、倒圆角、延长、裁剪、镜像、转换为参考、外部参考" style="shape=partialRectangle;html=1;whiteSpace=wrap;connectable=0;strokeColor=inherit;overflow=hidden;fillColor=none;top=0;left=0;bottom=0;right=0;pointerEvents=1;fontSize=16;rounded=1;" vertex="1" parent="ouyrmpoxjVuPYAmFfbhM-19">
          <mxGeometry x="195" width="195" height="66" as="geometry">
            <mxRectangle width="195" height="66" as="alternateBounds" />
          </mxGeometry>
        </mxCell>
        <mxCell id="ouyrmpoxjVuPYAmFfbhM-21" value="" style="shape=partialRectangle;html=1;whiteSpace=wrap;connectable=0;strokeColor=inherit;overflow=hidden;fillColor=none;top=0;left=0;bottom=0;right=0;pointerEvents=1;fontSize=16;rounded=1;" vertex="1" parent="ouyrmpoxjVuPYAmFfbhM-19">
          <mxGeometry x="390" width="195" height="66" as="geometry">
            <mxRectangle width="195" height="66" as="alternateBounds" />
          </mxGeometry>
        </mxCell>
        <mxCell id="ouyrmpoxjVuPYAmFfbhM-22" value="" style="shape=partialRectangle;html=1;whiteSpace=wrap;connectable=0;strokeColor=inherit;overflow=hidden;fillColor=none;top=0;left=0;bottom=0;right=0;pointerEvents=1;fontSize=16;rounded=1;" vertex="1" parent="ouyrmpoxjVuPYAmFfbhM-19">
          <mxGeometry x="585" width="195" height="66" as="geometry">
            <mxRectangle width="195" height="66" as="alternateBounds" />
          </mxGeometry>
        </mxCell>
        <mxCell id="ouyrmpoxjVuPYAmFfbhM-23" value="" style="shape=tableRow;horizontal=0;startSize=0;swimlaneHead=0;swimlaneBody=0;strokeColor=inherit;top=0;left=0;bottom=0;right=0;collapsible=0;dropTarget=0;fillColor=none;points=[[0,0.5],[1,0.5]];portConstraint=eastwest;fontSize=16;rounded=1;" vertex="1" parent="ouyrmpoxjVuPYAmFfbhM-14">
          <mxGeometry y="133" width="780" height="67" as="geometry" />
        </mxCell>
        <mxCell id="ouyrmpoxjVuPYAmFfbhM-24" value="几何约束求解" style="shape=partialRectangle;html=1;whiteSpace=wrap;connectable=0;strokeColor=inherit;overflow=hidden;fillColor=none;top=0;left=0;bottom=0;right=0;pointerEvents=1;fontSize=16;rounded=1;" vertex="1" parent="ouyrmpoxjVuPYAmFfbhM-23">
          <mxGeometry width="195" height="67" as="geometry">
            <mxRectangle width="195" height="67" as="alternateBounds" />
          </mxGeometry>
        </mxCell>
        <mxCell id="ouyrmpoxjVuPYAmFfbhM-29" value="几何约束和尺寸约束的添加、删除及尺寸约束的修改" style="shape=partialRectangle;html=1;whiteSpace=wrap;connectable=0;strokeColor=inherit;overflow=hidden;fillColor=none;top=0;left=0;bottom=0;right=0;pointerEvents=1;fontSize=16;rounded=1;" vertex="1" parent="ouyrmpoxjVuPYAmFfbhM-23">
          <mxGeometry x="195" width="195" height="67" as="geometry">
            <mxRectangle width="195" height="67" as="alternateBounds" />
          </mxGeometry>
        </mxCell>
        <mxCell id="ouyrmpoxjVuPYAmFfbhM-25" value="" style="shape=partialRectangle;html=1;whiteSpace=wrap;connectable=0;strokeColor=inherit;overflow=hidden;fillColor=none;top=0;left=0;bottom=0;right=0;pointerEvents=1;fontSize=16;rounded=1;" vertex="1" parent="ouyrmpoxjVuPYAmFfbhM-23">
          <mxGeometry x="390" width="195" height="67" as="geometry">
            <mxRectangle width="195" height="67" as="alternateBounds" />
          </mxGeometry>
        </mxCell>
        <mxCell id="ouyrmpoxjVuPYAmFfbhM-26" value="" style="shape=partialRectangle;html=1;whiteSpace=wrap;connectable=0;strokeColor=inherit;overflow=hidden;fillColor=none;top=0;left=0;bottom=0;right=0;pointerEvents=1;fontSize=16;rounded=1;" vertex="1" parent="ouyrmpoxjVuPYAmFfbhM-23">
          <mxGeometry x="585" width="195" height="67" as="geometry">
            <mxRectangle width="195" height="67" as="alternateBounds" />
          </mxGeometry>
        </mxCell>
        <mxCell id="ouyrmpoxjVuPYAmFfbhM-30" style="shape=tableRow;horizontal=0;startSize=0;swimlaneHead=0;swimlaneBody=0;strokeColor=inherit;top=0;left=0;bottom=0;right=0;collapsible=0;dropTarget=0;fillColor=none;points=[[0,0.5],[1,0.5]];portConstraint=eastwest;fontSize=16;rounded=1;" vertex="1" parent="ouyrmpoxjVuPYAmFfbhM-14">
          <mxGeometry y="200" width="780" height="67" as="geometry" />
        </mxCell>
        <mxCell id="ouyrmpoxjVuPYAmFfbhM-31" value="特征创建" style="shape=partialRectangle;html=1;whiteSpace=wrap;connectable=0;strokeColor=inherit;overflow=hidden;fillColor=none;top=0;left=0;bottom=0;right=0;pointerEvents=1;fontSize=16;rounded=1;" vertex="1" parent="ouyrmpoxjVuPYAmFfbhM-30">
          <mxGeometry width="195" height="67" as="geometry">
            <mxRectangle width="195" height="67" as="alternateBounds" />
          </mxGeometry>
        </mxCell>
        <mxCell id="ouyrmpoxjVuPYAmFfbhM-32" value="拉伸、挖孔、旋转、挖槽、增料扫掠、减料扫掠；&lt;br style=&quot;border-color: var(--border-color); font-size: 12px;&quot;&gt;&lt;span style=&quot;font-size: 12px;&quot;&gt;倒圆角、倒方角；&lt;/span&gt;&lt;br style=&quot;border-color: var(--border-color); font-size: 12px;&quot;&gt;&lt;span style=&quot;font-size: 12px;&quot;&gt;镜像、线性阵列、圆形阵列；&lt;/span&gt;" style="shape=partialRectangle;html=1;whiteSpace=wrap;connectable=0;strokeColor=inherit;overflow=hidden;fillColor=none;top=0;left=0;bottom=0;right=0;pointerEvents=1;fontSize=16;rounded=1;" vertex="1" parent="ouyrmpoxjVuPYAmFfbhM-30">
          <mxGeometry x="195" width="195" height="67" as="geometry">
            <mxRectangle width="195" height="67" as="alternateBounds" />
          </mxGeometry>
        </mxCell>
        <mxCell id="ouyrmpoxjVuPYAmFfbhM-33" style="shape=partialRectangle;html=1;whiteSpace=wrap;connectable=0;strokeColor=inherit;overflow=hidden;fillColor=none;top=0;left=0;bottom=0;right=0;pointerEvents=1;fontSize=16;rounded=1;" vertex="1" parent="ouyrmpoxjVuPYAmFfbhM-30">
          <mxGeometry x="390" width="195" height="67" as="geometry">
            <mxRectangle width="195" height="67" as="alternateBounds" />
          </mxGeometry>
        </mxCell>
        <mxCell id="ouyrmpoxjVuPYAmFfbhM-34" style="shape=partialRectangle;html=1;whiteSpace=wrap;connectable=0;strokeColor=inherit;overflow=hidden;fillColor=none;top=0;left=0;bottom=0;right=0;pointerEvents=1;fontSize=16;rounded=1;" vertex="1" parent="ouyrmpoxjVuPYAmFfbhM-30">
          <mxGeometry x="585" width="195" height="67" as="geometry">
            <mxRectangle width="195" height="67" as="alternateBounds" />
          </mxGeometry>
        </mxCell>
        <mxCell id="ouyrmpoxjVuPYAmFfbhM-35" style="shape=tableRow;horizontal=0;startSize=0;swimlaneHead=0;swimlaneBody=0;strokeColor=inherit;top=0;left=0;bottom=0;right=0;collapsible=0;dropTarget=0;fillColor=none;points=[[0,0.5],[1,0.5]];portConstraint=eastwest;fontSize=16;rounded=1;" vertex="1" parent="ouyrmpoxjVuPYAmFfbhM-14">
          <mxGeometry y="267" width="780" height="67" as="geometry" />
        </mxCell>
        <mxCell id="ouyrmpoxjVuPYAmFfbhM-36" style="shape=partialRectangle;html=1;whiteSpace=wrap;connectable=0;strokeColor=inherit;overflow=hidden;fillColor=none;top=0;left=0;bottom=0;right=0;pointerEvents=1;fontSize=16;rounded=1;" vertex="1" parent="ouyrmpoxjVuPYAmFfbhM-35">
          <mxGeometry width="195" height="67" as="geometry">
            <mxRectangle width="195" height="67" as="alternateBounds" />
          </mxGeometry>
        </mxCell>
        <mxCell id="ouyrmpoxjVuPYAmFfbhM-37" style="shape=partialRectangle;html=1;whiteSpace=wrap;connectable=0;strokeColor=inherit;overflow=hidden;fillColor=none;top=0;left=0;bottom=0;right=0;pointerEvents=1;fontSize=16;rounded=1;" vertex="1" parent="ouyrmpoxjVuPYAmFfbhM-35">
          <mxGeometry x="195" width="195" height="67" as="geometry">
            <mxRectangle width="195" height="67" as="alternateBounds" />
          </mxGeometry>
        </mxCell>
        <mxCell id="ouyrmpoxjVuPYAmFfbhM-38" style="shape=partialRectangle;html=1;whiteSpace=wrap;connectable=0;strokeColor=inherit;overflow=hidden;fillColor=none;top=0;left=0;bottom=0;right=0;pointerEvents=1;fontSize=16;rounded=1;" vertex="1" parent="ouyrmpoxjVuPYAmFfbhM-35">
          <mxGeometry x="390" width="195" height="67" as="geometry">
            <mxRectangle width="195" height="67" as="alternateBounds" />
          </mxGeometry>
        </mxCell>
        <mxCell id="ouyrmpoxjVuPYAmFfbhM-39" style="shape=partialRectangle;html=1;whiteSpace=wrap;connectable=0;strokeColor=inherit;overflow=hidden;fillColor=none;top=0;left=0;bottom=0;right=0;pointerEvents=1;fontSize=16;rounded=1;" vertex="1" parent="ouyrmpoxjVuPYAmFfbhM-35">
          <mxGeometry x="585" width="195" height="67" as="geometry">
            <mxRectangle width="195" height="67" as="alternateBounds" />
          </mxGeometry>
        </mxCell>
      </root>
    </mxGraphModel>
  </diagram>
</mxfile>
